<svg width="119" height="23" viewBox="0 0 119 23" fill="none" xmlns="http://www.w3.org/2000/svg">
<path d="M0.585792 20.1005C35.7489 21.4547 87.8537 16.916 118.344 0.190117C118.441 0.156306 118.546 0.156013 118.642 0.189345C118.739 0.222677 118.822 0.287673 118.877 0.373764C118.932 0.459856 118.956 0.562019 118.946 0.663722C118.936 0.765426 118.892 0.860723 118.82 0.934153C89.5575 21.3579 35.8977 26.1569 0.518809 20.9636C0.424624 20.9319 0.343751 20.8696 0.288931 20.7867C0.234112 20.7039 0.208494 20.605 0.216181 20.506C0.223868 20.4069 0.264397 20.3132 0.331347 20.2398C0.398296 20.1663 0.487843 20.1173 0.585792 20.1005Z" fill="#231F20"/>
</svg>
